<?xml version="1.0" encoding="utf-8"?>
<!-- Generator: Adobe Illustrator 18.1.0, SVG Export Plug-In . SVG Version: 6.00 Build 0)  -->
<svg version="1.1" id="Layer_1" xmlns="http://www.w3.org/2000/svg" xmlns:xlink="http://www.w3.org/1999/xlink" x="0px" y="0px"
	 viewBox="62.7 0 473.7 600" enable-background="new 62.7 0 473.7 600" xml:space="preserve">
<g>
	<polygon fill="#FFFFFF" points="153.2,600 151.5,386.6 172.8,386.6 174.5,542.8 221.5,489 273.5,544.5 272.7,443.8 294,443 
		295.7,599.1 222.3,520.6 	"/>
</g>
<g>
	<polygon fill="#FFFFFF" points="312.8,599.1 311.1,446.4 332.4,446.4 333.3,543.7 381.1,489 433.1,544.5 431.4,388.3 452.8,387.5 
		454.5,598.3 381.9,520.6 	"/>
</g>
<g>
	<path fill="#DF5A26" d="M300,474.5c-10.2,0-17.9-7.7-23-13.7c-1.7-1.7-4.3-4.3-5.1-5.1c-1.7,0.9-5.1,2.6-6.8,3.4
		c-6,3.4-12.8,7.7-20.5,7.7c-1.7,0-3.4,0-5.1-0.9c-10.2-2.6-15.4-11.9-18.8-18.8c-0.9-1.7-2.6-5.1-4.3-6.8c-1.7,0-5.1,0.9-7.7,1.7
		c-4.3,1.7-10.2,2.6-15.4,2.6c-4.3,0-8.5-0.9-11.1-2.6c-8.5-5.1-11.1-15.4-13.7-23c-0.9-2.6-1.7-5.1-1.7-7.7c-0.9,0-2.6,0-4.3,0
		c-0.9,0-1.7,0-3.4,0c-0.9,0-2.6,0-3.4,0c-5.1,0-15.4,0-22.2-6.8c-7.7-7.7-6.8-17.9-6.8-25.6c0-2.6,0-6,0-7.7
		c-1.7-0.9-5.1-1.7-7.7-1.7c-7.7-1.7-17.9-4.3-23-13.7c-5.1-8.5-2.6-18.8,0-26.5c0.9-2.6,1.7-6,1.7-7.7c-1.7-0.9-4.3-2.6-6.8-4.3
		c-7.7-4.3-16.2-9.4-18.8-18.8c-2.6-10.2,2.6-18.8,6.8-25.6c0.9-1.7,3.4-5.1,3.4-6.8c-2.6-1.7-4.3-4.3-6-6c-6-5.1-13.7-12.8-13.7-23
		c0-10.2,7.7-17.9,13.7-23c1.7-1.7,4.3-4.3,5.1-5.1c-0.9-1.7-2.6-5.1-3.4-6.8c-4.3-6.8-9.4-16.2-6.8-25.6
		c2.6-10.2,11.9-15.4,18.8-18.8c1.7-0.9,5.1-2.6,6.8-4.3c0-1.7-0.9-5.1-1.7-7.7c-2.6-7.7-5.1-17.9,0-26.5c5.1-8.5,15.4-11.1,23-13.7
		c2.6-0.9,5.1-1.7,7.7-2.6c0-1.7,0-5.1,0-7.7c0-8.5,0-18.8,6.8-25.6c6.8-6.8,17.1-6.8,22.2-6.8c0.9,0,2.6,0,3.4,0s1.7,0,3.4,0
		c2.6,0,3.4,0,4.3,0c0.9-1.7,1.7-5.1,1.7-7.7c1.7-7.7,4.3-17.9,13.7-23c3.4-1.7,6.8-2.6,11.1-2.6c5.1,0,10.2,1.7,15.4,2.6
		c2.6,0.9,6,1.7,7.7,1.7c0.9-1.7,2.6-4.3,4.3-6.8c4.3-7.7,9.4-16.2,18.8-18.8c1.7-0.9,3.4-0.9,5.1-0.9c7.7,0,14.5,4.3,20.5,7.7
		c1.7,0.9,5.1,3.4,6.8,3.4c1.7-1.7,4.3-3.4,5.1-5.1c6-6,13.7-13.7,23.9-13.7s17.9,7.7,23,13.7c1.7,1.7,4.3,4.3,5.1,5.1
		c1.7-0.9,5.1-2.6,6.8-3.4c6-3.4,12.8-7.7,20.5-7.7c1.7,0,3.4,0,5.1,0.9c10.2,2.6,15.4,11.9,18.8,18.8c0.9,1.7,2.6,5.1,4.3,6.8
		c1.7,0,5.1-0.9,7.7-1.7c4.3-1.7,10.2-2.6,15.4-2.6c4.3,0,8.5,0.9,11.1,2.6c8.5,5.1,11.1,15.4,13.7,23c0.9,2.6,1.7,5.1,1.7,7.7
		c0.9,0,2.6,0,4.3,0c0.9,0,1.7,0,3.4,0c0.9,0,2.6,0,3.4,0c5.1,0,15.4,0,22.2,6.8c7.7,7.7,6.8,17.9,6.8,25.6c0,2.6,0,6,0,7.7
		c1.7,0.9,5.1,1.7,7.7,2.6c7.7,1.7,17.9,4.3,23,13.7c5.1,8.5,2.6,18.8,0,26.5c-0.9,2.6-1.7,6-1.7,7.7c1.7,0.9,4.3,2.6,6.8,4.3
		c7.7,4.3,16.2,9.4,18.8,18.8c2.6,10.2-2.6,18.8-6.8,25.6c-0.9,1.7-3.4,5.1-3.4,6.8c0.9,1.7,3.4,3.4,5.1,5.1c6,6,13.7,12.8,13.7,23
		s-7.7,17.9-13.7,23c-1.7,1.7-4.3,4.3-5.1,5.1c0.9,1.7,2.6,5.1,3.4,6.8c4.3,6.8,9.4,16.2,6.8,25.6c-2.6,10.2-11.9,15.4-18.8,18.8
		c-1.7,0.9-5.1,2.6-6.8,4.3c0,1.7,0.9,5.1,1.7,7.7c2.6,7.7,5.1,17.9,0,26.5c-5.1,8.5-15.4,11.1-23,13.7c-2.6,0.9-5.1,1.7-7.7,1.7
		c0,1.7,0,5.1,0,7.7c0,8.5,0,18.8-6.8,25.6c-6.8,6.8-17.1,6.8-22.2,6.8c-0.9,0-2.6,0-3.4,0c-0.9,0-1.7,0-3.4,0c-2.6,0-3.4,0-4.3,0
		c-0.9,1.7-1.7,5.1-1.7,7.7c-1.7,7.7-4.3,17.9-13.7,23c-3.4,1.7-6.8,2.6-11.1,2.6c-5.1,0-10.2-1.7-15.4-2.6c-2.6-0.9-6-1.7-7.7-1.7
		c-0.9,1.7-2.6,4.3-4.3,6.8c-4.3,7.7-9.4,16.2-18.8,18.8c-1.7,0.9-3.4,0.9-5.1,0.9c-7.7,0-14.5-4.3-20.5-7.7
		c-1.7-0.9-5.1-3.4-6.8-3.4c-1.7,0.9-3.4,3.4-5.1,5.1C317.9,466.9,310.2,474.5,300,474.5z M271.8,430.2c0.9,0,1.7,0,2.6,0
		c8.5,0.9,15.4,7.7,20.5,12.8c1.7,1.7,3.4,3.4,5.1,5.1c1.7-1.7,3.4-3.4,5.1-5.1c5.1-6,11.9-11.9,20.5-12.8c0.9,0,1.7,0,2.6,0
		c7.7,0,14.5,4.3,20.5,7.7c1.7,0.9,4.3,2.6,6,3.4c0.9-1.7,2.6-4.3,3.4-6c3.4-6.8,7.7-14.5,16.2-17.9c2.6-0.9,6-1.7,9.4-1.7
		c5.1,0,10.2,1.7,15.4,2.6c1.7,0.9,4.3,1.7,6.8,1.7c0.9-1.7,1.7-4.3,1.7-6.8c1.7-7.7,4.3-16.2,11.1-21.3c6.8-5.1,15.4-5.1,23.9-5.1
		c2.6,0,5.1,0,6.8,0c0-1.7,0-5.1,0-6.8c0-7.7,0-17.1,5.1-23.9c5.1-6.8,13.7-9.4,21.3-11.1c1.7-0.9,4.3-0.9,6.8-1.7
		c0-1.7-0.9-4.3-1.7-6.8c-2.6-7.7-4.3-16.2-0.9-24.8c3.4-8.5,11.1-12.8,17.9-16.2c1.7-0.9,4.3-2.6,6-3.4c-0.9-1.7-2.6-4.3-3.4-6
		c-4.3-6.8-8.5-14.5-7.7-23c0.9-8.5,7.7-15.4,12.8-20.5c1.7-1.7,3.4-3.4,5.1-5.1c-1.7-1.7-3.4-3.4-5.1-5.1
		c-6-5.1-11.9-11.9-12.8-20.5c-0.9-9.4,3.4-17.1,7.7-23c0.9-1.7,2.6-4.3,3.4-6c-1.7-0.9-4.3-2.6-6-3.4c-6.8-3.4-14.5-7.7-17.9-16.2
		c-3.4-8.5-0.9-17.1,0.9-24.8c0.9-1.7,1.7-4.3,1.7-6.8c-1.7-0.9-4.3-1.7-6.8-1.7c-7.7-1.7-16.2-4.3-21.3-11.1
		c-5.1-6.8-5.1-16.2-5.1-23.9c0-1.7,0-5.1,0-6.8c-1.7,0-4.3,0-6.8,0c-8.5,0-17.1,0-23.9-5.1c-6.8-5.1-9.4-13.7-11.1-21.3
		c-0.9-1.7-0.9-4.3-1.7-6.8c-1.7,0-4.3,0.9-6.8,1.7c-4.3,1.7-10.2,2.6-15.4,2.6c-3.4,0-6-0.9-9.4-1.7c-8.5-3.4-12.8-11.1-16.2-17.9
		c-0.9-1.7-2.6-4.3-3.4-6c-1.7,0.9-4.3,2.6-6,3.4c-6,3.4-12.8,7.7-20.5,7.7c-0.9,0-1.7,0-2.6,0c-8.5-0.9-15.4-7.7-20.5-12.8
		c-1.7-1.7-3.4-3.4-5.1-5.1c-1.7,1.7-3.4,3.4-5.1,5.1c-5.1,6-11.9,11.9-20.5,12.8c-0.9,0-1.7,0-2.6,0c-7.7,0-14.5-4.3-20.5-7.7
		c-1.7-0.9-4.3-2.6-6-3.4c-0.9,1.7-2.6,4.3-3.4,6c-3.4,6.8-7.7,14.5-16.2,17.9c-2.6,0.9-6,1.7-9.4,1.7c-5.1,0-10.2-1.7-15.4-2.6
		c-1.7-0.9-4.3-1.7-6.8-1.7c-0.9,1.7-1.7,4.3-1.7,6.8c-1.7,7.7-4.3,16.2-11.1,21.3c-6.8,5.1-15.4,5.1-23.9,5.1c-2.6,0-5.1,0-6.8,0
		c0,1.7,0,5.1,0,6.8c0,7.7,0,17.1-5.1,23.9c-5.1,6.8-13.7,9.4-21.3,11.1c-1.7,0.9-4.3,0.9-6.8,1.7c0,1.7,0.9,4.3,1.7,6.8
		c2.6,7.7,4.3,16.2,0.9,24.8c-3.4,8.5-11.1,12.8-17.9,16.2c-1.7,0.9-4.3,2.6-6,3.4c0.9,1.7,2.6,4.3,3.4,6c4.3,6.8,8.5,14.5,7.7,23
		s-7.7,15.4-12.8,20.5c-1.7,1.7-3.4,3.4-5.1,5.1c1.7,1.7,3.4,3.4,5.1,5.1c6,5.1,11.9,11.9,12.8,20.5c0.9,9.4-3.4,17.1-7.7,23
		c-0.9,1.7-2.6,4.3-3.4,6c1.7,0.9,4.3,2.6,6,3.4c6.8,3.4,14.5,7.7,17.9,16.2s0.9,17.1-0.9,24.8c-0.9,1.7-1.7,4.3-1.7,6.8
		c1.7,0.9,4.3,1.7,6.8,1.7c7.7,1.7,16.2,4.3,21.3,11.1s5.1,16.2,5.1,23.9c0,1.7,0,5.1,0,6.8c1.7,0,4.3,0,6.8,0
		c8.5,0,17.1,0,23.9,5.1s9.4,13.7,11.1,21.3c0.9,1.7,0.9,4.3,1.7,6.8c1.7,0,4.3-0.9,6.8-1.7c4.3-1.7,10.2-2.6,15.4-2.6
		c3.4,0,6,0.9,9.4,1.7c8.5,3.4,12.8,11.1,16.2,17.9c0.9,1.7,2.6,4.3,3.4,6c1.7-0.9,4.3-2.6,6-3.4
		C257.3,433.6,264.2,430.2,271.8,430.2z"/>
</g>
<g>
	<g>
		<path fill="#FFFFFF" d="M303.4,176.7v18.8h-12.8v21.3h-22.2v-21.3h-52.1v-10.2l52.9-90.5h21.3v81.9H303.4z M269.3,128.9
			L269.3,128.9l-25.6,47.8h25.6V128.9z"/>
	</g>
	<g>
		<path fill="#FFFFFF" d="M342.7,116.9l-4.3,17.9h6c23,0,38.4,18.8,38.4,41.8c0,25.6-17.9,42.7-43.5,42.7
			c-14.5,0-26.5-5.1-35.8-16.2l6.8-19.6c6,8.5,16.2,15.4,27.3,15.4c12.8,0,21.3-11.1,21.3-23.9s-10.2-23.9-23-23.9
			c-6.8,0-14.5,3.4-18.8,7.7h-3.4l12.8-63.2h52.1v20.5h-35.8V116.9z"/>
	</g>
</g>
<g>
	<g>
		<path fill="#FFFFFF" d="M226.6,232.1h17.1c17.9,0,29.9,13.7,29.9,31.6c0,17.1-12.8,30.7-29.9,30.7h-17.1V232.1z M238.5,284.2h1.7
			c15.4,0,20.5-8.5,20.5-20.5c0-13.7-6.8-20.5-20.5-20.5h-1.7V284.2z"/>
	</g>
	<g>
		<path fill="#FFFFFF" d="M293.2,281.7l-5.1,12.8h-12.8l23.9-64h9.4l23.9,64h-12.8l-5.1-12.8H293.2z M303.4,249.2L303.4,249.2
			l-6.8,23h14.5L303.4,249.2z"/>
	</g>
	<g>
		<path fill="#FFFFFF" d="M322.2,232.1h13.7l11.1,21.3l11.9-21.3h14.5l-20.5,34.1v28.2H341v-28.2L322.2,232.1z"/>
	</g>
</g>
<g>
	<g>
		<path fill="#DF5A26" d="M231.7,334.6h-16.2v-11.1h46.1v11.1h-16.2v49.5h-13.7V334.6z"/>
		<path fill="#DF5A26" d="M264.2,354.2c0-6.8,0-10.2,0-14.5h11.9l0.9,7.7l0,0c2.6-6,7.7-9.4,11.9-9.4c0.9,0,1.7,0,2.6,0v12.8
			c-0.9,0-2.6,0-3.4,0c-5.1,0-8.5,2.6-9.4,6.8c0,0.9,0,1.7,0,3.4v23H265v-29.9H264.2z"/>
		<path fill="#DF4E2A" d="M312.8,327.7c0,3.4-2.6,6.8-7.7,6.8c-4.3,0-6.8-3.4-6.8-6.8c0-4.3,2.6-6.8,6.8-6.8
			C309.4,320.9,311.9,323.5,312.8,327.7z M298.3,384.1v-43.5h13.7v43.5H298.3z"/>
		<path fill="#DF5A26" d="M347.8,384.1l-0.9-4.3l0,0c-2.6,3.4-7.7,5.1-12.8,5.1c-8.5,0-14.5-6.8-14.5-13.7
			c0-11.1,10.2-17.1,25.6-17.1v-0.9c0-2.6-0.9-6-7.7-6c-4.3,0-9.4,1.7-11.9,3.4l-2.6-8.5c3.4-1.7,9.4-4.3,17.1-4.3
			c14.5,0,19.6,8.5,19.6,18.8v15.4c0,4.3,0,8.5,0.9,10.2h-12.8V384.1z M346.1,362.7c-6.8,0-12.8,1.7-12.8,6.8c0,3.4,2.6,5.1,5.1,5.1
			c3.4,0,6-2.6,6.8-5.1c0-0.9,0-1.7,0-2.6v-4.3H346.1z"/>
		<path fill="#DF5A26" d="M370,320.1h13.7v64H370V320.1z"/>
	</g>
</g>
</svg>
