<?xml version="1.0" encoding="utf-8"?>
<!-- Generator: Adobe Illustrator 19.2.1, SVG Export Plug-In . SVG Version: 6.00 Build 0)  -->
<!DOCTYPE svg PUBLIC "-//W3C//DTD SVG 1.1//EN" "http://www.w3.org/Graphics/SVG/1.1/DTD/svg11.dtd">
<svg version="1.1" id="Layer_1" xmlns="http://www.w3.org/2000/svg" xmlns:xlink="http://www.w3.org/1999/xlink" x="0px" y="0px"
	 viewBox="0 0 144 144" style="enable-background:new 0 0 144 144;" xml:space="preserve">
<style type="text/css">
	.st0{fill:#FFFFFF;}
	.st1{fill:#386CB0;}
</style>
<rect x="4.9" y="92" class="st0" width="133" height="47"/>
<g>
	<path class="st1" d="M0,0v144h144V0H0z M101.4,103.6h23.1c1.8,0,3.5,0.8,5.2,2.3c0.7,0.7,1.2,1.5,1.5,2.6c0.1,0.6,0.2,0.9,0.3,1.2
		H94.3C94.9,105.6,97.3,103.6,101.4,103.6z M18.7,103.6h23.1c1.8,0,3.5,0.8,5.2,2.3c0.7,0.7,1.2,1.5,1.5,2.6
		c0.1,0.6,0.2,0.9,0.3,1.2H11.6C12.3,105.6,14.6,103.6,18.7,103.6z M41.9,131.8h-21c-4,0-6.6-0.8-7.8-2.2c-1.1-1.2-1.6-2.5-1.6-3.9
		h26.7c1.5,0,2.3-0.8,2.3-2.5c0-1.6-0.7-2.4-2.2-2.4H18.7c-4.2,0-6.6-2.2-7.1-6.5h11c0.1,0,0.1,0,0.2,0H42c5,0,7.6,2.8,7.5,8.5
		C49.5,128.8,47,131.8,41.9,131.8z M49.5,103.9h10.3l3.3,5.7H52.9L49.5,103.9z M77.6,131.5H66l-10.3-17.2h10.2l5.6,9.6h0.6l5.6-9.6
		h10.2L77.6,131.5z M80.4,109.6l3.3-5.7H94l-3.4,5.7H80.4z M124.6,131.8h-21.1c-4,0-6.6-0.8-7.8-2.2c-1.1-1.2-1.6-2.5-1.6-3.9h26.8
		c1.5,0,2.3-0.8,2.3-2.5c0-1.6-0.7-2.4-2.2-2.4h-19.5c-4.2,0-6.6-2.2-7.1-6.5h11c0.1,0,0.1,0,0.2,0h19.2c5,0,7.5,2.8,7.5,8.5
		C132.1,128.8,129.6,131.8,124.6,131.8z"/>
</g>
</svg>
