<?xml version="1.0" encoding="utf-8"?>
<!-- Generator: Adobe Illustrator 18.1.0, SVG Export Plug-In . SVG Version: 6.00 Build 0)  -->
<svg version="1.1" id="Layer_1" xmlns="http://www.w3.org/2000/svg" xmlns:xlink="http://www.w3.org/1999/xlink" x="0px" y="0px"
	 viewBox="0 0 395.9 144" enable-background="new 0 0 395.9 144" xml:space="preserve">
<g>
	<g>
		<path fill="#366BB0" d="M0,0v144h144V0H0z M101.4,103.6h23.1c1.8,0,3.5,0.8,5.2,2.3c0.7,0.7,1.2,1.5,1.5,2.6
			c0.1,0.6,0.2,0.9,0.3,1.2H94.3C94.9,105.6,97.3,103.6,101.4,103.6z M18.7,103.6h23.1c1.8,0,3.5,0.8,5.2,2.3
			c0.7,0.7,1.2,1.5,1.5,2.6c0.1,0.6,0.2,0.9,0.3,1.2H11.6C12.3,105.6,14.6,103.6,18.7,103.6z M41.9,131.8H20.9c-4,0-6.6-0.8-7.8-2.2
			c-1.1-1.2-1.6-2.6-1.6-3.9h26.7c1.5,0,2.3-0.8,2.3-2.5c0-1.6-0.7-2.4-2.2-2.4H18.7c-4.2,0-6.6-2.2-7.1-6.5h11c0.1,0,0.1,0,0.2,0
			h19.2c5,0,7.6,2.8,7.5,8.5C49.5,128.8,47,131.8,41.9,131.8z M49.5,103.9h10.3l3.3,5.7H52.9L49.5,103.9z M77.6,131.5H66l-10.3-17.2
			h10.2l5.6,9.6h0.6l5.6-9.6h10.2L77.6,131.5z M80.4,109.6l3.3-5.7h10.3l-3.4,5.7H80.4z M124.6,131.8h-21.1c-4,0-6.6-0.8-7.8-2.2
			c-1.1-1.2-1.6-2.6-1.6-3.9h26.8c1.5,0,2.3-0.8,2.3-2.5c0-1.6-0.7-2.4-2.2-2.4h-19.5c-4.2,0-6.6-2.2-7.1-6.5h11c0.1,0,0.1,0,0.2,0
			h19.2c5,0,7.5,2.8,7.5,8.5C132.1,128.8,129.6,131.8,124.6,131.8z"/>
	</g>
	<g>
		<g>
			<path fill="#366BB0" d="M194.8,85.2l-1.7,1.3c-0.4-0.5-0.8-0.8-1.2-1c-0.4-0.2-0.9-0.3-1.5-0.3c-0.7,0-1.3,0.2-1.8,0.5
				c-0.5,0.3-0.7,0.8-0.7,1.3c0,0.5,0.2,0.9,0.6,1.2c0.4,0.4,1.1,0.7,2,1.1c1,0.4,1.7,0.8,2.2,1.2c0.5,0.4,1,0.7,1.3,1.2
				c0.3,0.4,0.6,0.9,0.8,1.4c0.2,0.5,0.2,1,0.2,1.5c0,1.2-0.5,2.3-1.4,3.2c-0.9,0.9-2,1.3-3.3,1.3c-1.3,0-2.4-0.3-3.3-1
				c-1-0.7-1.7-1.7-2.2-3.1l2-0.6c0.7,1.7,1.9,2.5,3.4,2.5c0.7,0,1.4-0.2,1.9-0.7c0.5-0.4,0.7-1,0.7-1.7c0-0.4-0.1-0.8-0.4-1.2
				c-0.3-0.4-0.6-0.7-1-1c-0.4-0.3-1-0.6-1.8-0.9c-0.8-0.3-1.5-0.7-1.9-0.9c-0.5-0.3-0.8-0.6-1.2-1c-0.3-0.4-0.6-0.8-0.7-1.2
				c-0.2-0.4-0.2-0.8-0.2-1.3c0-1.1,0.4-2,1.3-2.7c0.9-0.7,1.9-1.1,3.1-1.1c0.8,0,1.6,0.2,2.5,0.5C193.5,83.9,194.2,84.4,194.8,85.2
				z"/>
			<path fill="#366BB0" d="M197,90.9c0-2.2,0.8-4,2.4-5.6s3.6-2.3,5.9-2.3c2.2,0,4.2,0.8,5.8,2.3c1.6,1.6,2.4,3.4,2.4,5.5
				c0,2.3-0.8,4.2-2.4,5.7c-1.6,1.6-3.5,2.3-5.9,2.3c-2.3,0-4.2-0.8-5.8-2.4C197.8,95,197,93.1,197,90.9z M211.3,91
				c0-1.7-0.6-3-1.8-4.2c-1.2-1.1-2.7-1.7-4.4-1.7c-1.7,0-3.1,0.6-4.2,1.7c-1.2,1.2-1.8,2.5-1.8,4.1c0,1.6,0.6,3,1.8,4.1
				c1.2,1.1,2.7,1.7,4.4,1.7c1.6,0,3-0.6,4.2-1.7C210.8,93.9,211.3,92.6,211.3,91z"/>
			<path fill="#366BB0" d="M216.1,83.3h2v9.2c0,1.4,0.3,2.4,1,3.2c0.7,0.7,1.6,1.1,2.8,1.1c1.2,0,2.1-0.3,2.8-1c0.7-0.7,1-1.7,1-2.9
				v-9.5h2v9.4c0,1.8-0.5,3.3-1.6,4.4c-1,1.1-2.4,1.6-4.2,1.6c-1.8,0-3.2-0.6-4.3-1.7c-1.1-1.1-1.6-2.8-1.6-4.9V83.3z"/>
			<path fill="#366BB0" d="M230.6,82.9l11.1,11.4V83.5h2v15.7l-11.1-11.3v10.6h-2V82.9z"/>
			<path fill="#366BB0" d="M246.8,83.5h3.6c2.9,0,5,0.8,6.4,2.3c1.4,1.5,2.1,3.3,2.1,5.2c0,2-0.7,3.7-2.2,5.2
				c-1.4,1.5-3.6,2.3-6.3,2.3h-3.6V83.5z M248.8,85.5v10.9h0.1c1.5,0,2.7-0.1,3.4-0.2c0.8-0.1,1.5-0.4,2.2-0.9
				c0.7-0.5,1.2-1.1,1.6-1.8c0.4-0.8,0.6-1.6,0.6-2.5c0-1.2-0.3-2.2-1-3.1c-0.6-0.9-1.4-1.6-2.3-1.9c-0.9-0.3-2.1-0.5-3.6-0.5H248.8
				z"/>
		</g>
		<g>
			<path fill="#366BB0" d="M153.5,106.1h6c3,0,5.4,0.8,7.3,2.2c1.9,1.5,2.8,3.4,2.8,5.7c0,1.9-0.6,3.5-1.8,4.9
				c-1.2,1.4-3.1,2.4-5.7,3l8,11.8h-4.3l-7.7-11.4h-0.8v11.4h-3.8V106.1z M157.2,109.5v9.6c5.6,0.1,8.4-1.5,8.4-4.8
				c0-1.2-0.3-2.1-1-2.9c-0.6-0.7-1.5-1.3-2.6-1.5C160.9,109.6,159.3,109.5,157.2,109.5z"/>
			<path fill="#366BB0" d="M175.1,96.4h2.9v47.2h-2.9V96.4z"/>
			<path fill="#366BB0" d="M184.9,106.1h15.4v3.8h-11.6v6.9h11.6v3.7h-11.6v9.5h11.6v3.7h-15.4V106.1z"/>
			<path fill="#366BB0" d="M202.4,105.7h4l8.7,19.6l8.8-19.6h4l-12.8,28.6L202.4,105.7z"/>
			<path fill="#366BB0" d="M229.1,119.8c0-4,1.5-7.4,4.5-10.3c3-2.9,6.6-4.3,10.9-4.3c4.1,0,7.7,1.4,10.7,4.3
				c3,2.9,4.5,6.3,4.5,10.2c0,4.2-1.5,7.7-4.4,10.6c-3,2.9-6.6,4.3-10.9,4.3c-4.2,0-7.8-1.5-10.8-4.4
				C230.6,127.5,229.1,123.9,229.1,119.8z M255.7,120c0-3.1-1.1-5.6-3.3-7.7c-2.2-2.1-4.9-3.1-8.1-3.1c-3,0-5.7,1.1-7.9,3.2
				c-2.2,2.1-3.3,4.7-3.3,7.7c0,3,1.1,5.6,3.4,7.7c2.2,2.1,5,3.1,8.2,3.1c3,0,5.6-1.1,7.7-3.2C254.6,125.4,255.7,122.9,255.7,120z"
				/>
			<path fill="#366BB0" d="M265.2,106.1h3.7v24h9v3.7h-12.8V106.1z"/>
			<path fill="#366BB0" d="M281.2,105.7h3.8v17c0,2.5,0.6,4.5,1.8,5.9c1.2,1.4,2.9,2.1,5.1,2.1c2.2,0,3.9-0.6,5.1-1.9
				c1.2-1.3,1.9-3.1,1.9-5.4v-17.7h3.8v17.4c0,3.4-1,6.1-2.9,8.1c-1.9,2-4.5,3-7.7,3c-3.3,0-5.9-1-7.9-3.1c-2-2.1-3-5.1-3-9.1V105.7
				z"/>
			<path fill="#366BB0" d="M306.5,106.1h16.9v3.8h-6.6v23.9h-3.7v-23.9h-6.6V106.1z"/>
			<path fill="#366BB0" d="M327.7,106.1h3.7v27.7h-3.7V106.1z"/>
			<path fill="#366BB0" d="M336.3,119.8c0-4,1.5-7.4,4.5-10.3c3-2.9,6.6-4.3,10.9-4.3c4.1,0,7.7,1.4,10.7,4.3
				c3,2.9,4.5,6.3,4.5,10.2c0,4.2-1.5,7.7-4.4,10.6c-2.9,2.9-6.6,4.3-10.9,4.3c-4.2,0-7.8-1.5-10.8-4.4
				C337.8,127.5,336.3,123.9,336.3,119.8z M362.8,120c0-3.1-1.1-5.6-3.3-7.7c-2.2-2.1-4.9-3.1-8.1-3.1c-3.1,0-5.7,1.1-7.9,3.2
				c-2.2,2.1-3.3,4.7-3.3,7.7c0,3,1.1,5.6,3.4,7.7c2.2,2.1,5,3.1,8.2,3.1c3,0,5.6-1.1,7.7-3.2C361.8,125.4,362.8,122.9,362.8,120z"
				/>
			<path fill="#366BB0" d="M371.6,104.9l20.5,21V106h3.8v29l-20.5-21v19.7h-3.8V104.9z"/>
		</g>
	</g>
	<path fill="#FFFFFF" d="M101.4,103.6h23.1c1.8,0,3.5,0.8,5.2,2.3c0.7,0.7,1.2,1.5,1.5,2.6c0.1,0.6,0.2,0.9,0.3,1.2H94.3
		C94.9,105.6,97.3,103.6,101.4,103.6z"/>
	<path fill="#FFFFFF" d="M18.7,103.6h23.1c1.8,0,3.5,0.8,5.2,2.3c0.7,0.7,1.2,1.5,1.5,2.6c0.1,0.6,0.2,0.9,0.3,1.2H11.6
		C12.3,105.6,14.6,103.6,18.7,103.6z"/>
	<path fill="#FFFFFF" d="M41.9,131.8H20.9c-4,0-6.6-0.8-7.8-2.2c-1.1-1.2-1.6-2.6-1.6-3.9h26.7c1.5,0,2.3-0.8,2.3-2.5
		c0-1.6-0.7-2.4-2.2-2.4H18.7c-4.2,0-6.6-2.2-7.1-6.5h11c0.1,0,0.1,0,0.2,0h19.2c5,0,7.6,2.8,7.5,8.5
		C49.5,128.8,47,131.8,41.9,131.8z"/>
	<polygon fill="#FFFFFF" points="49.5,103.9 59.8,103.9 63.1,109.6 52.9,109.6 	"/>
	<polygon fill="#FFFFFF" points="77.6,131.5 66,131.5 55.7,114.3 65.8,114.3 71.5,123.9 72.1,123.9 77.7,114.3 87.9,114.3 	"/>
	<polygon fill="#FFFFFF" points="80.4,109.6 83.8,103.9 94.1,103.9 90.7,109.6 	"/>
	<path fill="#FFFFFF" d="M124.6,131.8h-21.1c-4,0-6.6-0.8-7.8-2.2c-1.1-1.2-1.6-2.6-1.6-3.9h26.8c1.5,0,2.3-0.8,2.3-2.5
		c0-1.6-0.7-2.4-2.2-2.4h-19.5c-4.2,0-6.6-2.2-7.1-6.5h11c0.1,0,0.1,0,0.2,0h19.2c5,0,7.5,2.8,7.5,8.5
		C132.1,128.8,129.6,131.8,124.6,131.8z"/>
</g>
</svg>
