<?xml version="1.0" encoding="utf-8"?>
<!-- Generator: Adobe Illustrator 19.2.1, SVG Export Plug-In . SVG Version: 6.00 Build 0)  -->
<!DOCTYPE svg PUBLIC "-//W3C//DTD SVG 1.1//EN" "http://www.w3.org/Graphics/SVG/1.1/DTD/svg11.dtd">
<svg version="1.1" id="Layer_1" xmlns="http://www.w3.org/2000/svg" xmlns:xlink="http://www.w3.org/1999/xlink" x="0px" y="0px"
	 viewBox="0 0 164.3 144" style="enable-background:new 0 0 164.3 144;" xml:space="preserve">
<style type="text/css">
	.st0{fill:#386CB0;}
	.st1{fill:#FFFFFF;}
</style>
<g>
	<g>
		<path class="st0" d="M20.3,0v144h144V0H20.3z M121.7,103.6h23.1c1.8,0,3.5,0.8,5.2,2.3c0.7,0.7,1.2,1.5,1.5,2.6
			c0.1,0.6,0.2,0.9,0.3,1.2h-37.2C115.2,105.6,117.6,103.6,121.7,103.6z M39,103.6h23.1c1.8,0,3.5,0.8,5.2,2.3
			c0.7,0.7,1.2,1.5,1.5,2.6c0.1,0.6,0.2,0.9,0.3,1.2H31.9C32.6,105.6,34.9,103.6,39,103.6z M62.2,131.8h-21c-4,0-6.6-0.8-7.8-2.2
			c-1.1-1.2-1.6-2.5-1.6-3.9h26.7c1.5,0,2.3-0.8,2.3-2.5c0-1.6-0.7-2.4-2.2-2.4H39c-4.2,0-6.6-2.2-7.1-6.5h11c0.1,0,0.1,0,0.2,0
			h19.2c5,0,7.6,2.8,7.5,8.5C69.8,128.8,67.3,131.8,62.2,131.8z M69.8,103.9h10.3l3.3,5.7H73.2L69.8,103.9z M97.9,131.5H86.3
			L76,114.3h10.2l5.6,9.6h0.6l5.6-9.6h10.2L97.9,131.5z M100.7,109.6l3.3-5.7h10.3l-3.4,5.7H100.7z M144.8,131.8h-21.1
			c-4,0-6.6-0.8-7.8-2.2c-1.1-1.2-1.6-2.5-1.6-3.9h26.8c1.5,0,2.3-0.8,2.3-2.5c0-1.6-0.7-2.4-2.2-2.4h-19.5c-4.2,0-6.6-2.2-7.1-6.5
			h11c0.1,0,0.1,0,0.2,0H145c5,0,7.5,2.8,7.5,8.5C152.4,128.8,149.9,131.8,144.8,131.8z"/>
	</g>
	<g>
		<path class="st0" d="M4.4,137.5l0.9,1.1c-0.3,0.3-0.5,0.6-0.7,0.8c-0.1,0.2-0.2,0.6-0.2,1c0,0.5,0.1,0.9,0.3,1.2
			c0.2,0.3,0.5,0.5,0.8,0.5s0.6-0.1,0.8-0.4c0.2-0.3,0.5-0.7,0.7-1.3c0.3-0.6,0.5-1.1,0.7-1.5s0.5-0.6,0.8-0.9
			c0.3-0.2,0.6-0.4,0.9-0.5c0.3-0.1,0.6-0.2,1-0.2c0.8,0,1.5,0.3,2,0.9c0.6,0.6,0.8,1.3,0.8,2.2c0,0.8-0.2,1.6-0.7,2.2
			c-0.4,0.6-1.1,1.1-2,1.5l-0.4-1.4c1.1-0.5,1.6-1.2,1.6-2.3c0-0.5-0.1-0.9-0.4-1.2c-0.3-0.3-0.6-0.5-1.1-0.5
			c-0.3,0-0.5,0.1-0.8,0.3s-0.5,0.4-0.6,0.6c-0.2,0.3-0.4,0.7-0.6,1.2c-0.2,0.6-0.4,1-0.6,1.3s-0.4,0.6-0.7,0.8
			c-0.3,0.2-0.5,0.4-0.8,0.5s-0.5,0.2-0.8,0.2c-0.7,0-1.3-0.3-1.8-0.9c-0.5-0.6-0.7-1.3-0.7-2.1c0-0.5,0.1-1.1,0.3-1.6
			C3.6,138.3,4,137.9,4.4,137.5z"/>
		<path class="st0" d="M8.1,136c-1.4,0-2.6-0.5-3.6-1.6S3,132,3,130.5s0.5-2.8,1.5-3.8c1-1.1,2.2-1.6,3.6-1.6c1.5,0,2.7,0.5,3.7,1.6
			s1.5,2.4,1.5,3.9s-0.5,2.8-1.5,3.9C10.8,135.5,9.6,136,8.1,136z M8.2,126.5c-1.1,0-2,0.4-2.7,1.2c-0.7,0.8-1.1,1.8-1.1,2.9
			c0,1.1,0.4,2,1.1,2.8s1.6,1.2,2.7,1.2s1.9-0.4,2.7-1.2c0.7-0.8,1.1-1.8,1.1-2.9c0-1.1-0.4-2-1.1-2.8
			C10.1,126.9,9.2,126.5,8.2,126.5z"/>
		<path class="st0" d="M3.2,123.4V122h5.9c0.9,0,1.6-0.2,2-0.7c0.5-0.4,0.7-1,0.7-1.8s-0.2-1.4-0.7-1.8c-0.4-0.4-1.1-0.7-1.9-0.7h-6
			v-1.4h6.1c1.2,0,2.1,0.3,2.8,1c0.7,0.7,1.1,1.6,1.1,2.8c0,1.2-0.4,2.1-1.1,2.8c-0.7,0.7-1.8,1.1-3.2,1.1L3.2,123.4L3.2,123.4z"/>
		<path class="st0" d="M3,113.8l7.3-7.3H3.4v-1.4h10.1l-7.3,7.3H13v1.4H3z"/>
		<path class="st0" d="M3.4,103.1v-2.4c0-1.9,0.5-3.3,1.5-4.2c1-0.9,2.1-1.4,3.3-1.4c1.3,0,2.4,0.5,3.4,1.4c1,1,1.5,2.4,1.5,4.2v2.4
			H3.4z M4.7,101.7h7v-0.1c0-1,0-1.8-0.1-2.3s-0.3-1-0.6-1.4c-0.3-0.5-0.7-0.8-1.2-1.1c-0.5-0.3-1-0.4-1.6-0.4c-0.7,0-1.4,0.2-2,0.6
			s-1,0.9-1.2,1.5s-0.3,1.4-0.3,2.4C4.7,100.9,4.7,101.7,4.7,101.7z"/>
		<path class="st0" d="M3.4,88.9v-2.1c0-1.1,0.3-1.9,0.8-2.6s1.2-1,2-1c0.6,0,1.2,0.2,1.7,0.7c0.5,0.4,0.8,1.1,1,2L13,83v1.6l-4,2.7
			v0.3h4V89L3.4,88.9L3.4,88.9z M4.6,87.5H8c0-2-0.5-3-1.7-3c-0.4,0-0.7,0.1-1,0.3C5,85,4.9,85.3,4.8,85.7
			C4.6,86.2,4.6,86.8,4.6,87.5z"/>
		<path class="st0" d="M0,81.1v-1h16.4v1H0z"/>
		<path class="st0" d="M3.4,77.6v-5.5h1.3v4.2h2.4v-4.2h1.3v4.2h3.3v-4.2H13v5.5H3.4z"/>
		<path class="st0" d="M3.2,71.3v-1.4l6.8-3.1l-6.8-3.1v-1.4l9.9,4.6L3.2,71.3z"/>
		<path class="st0" d="M8.1,61.8c-1.4,0-2.6-0.5-3.6-1.6S3,57.8,3,56.3s0.5-2.7,1.5-3.8s2.2-1.6,3.6-1.6c1.5,0,2.7,0.5,3.7,1.6
			s1.5,2.3,1.5,3.9c0,1.5-0.5,2.8-1.5,3.9C10.8,61.3,9.6,61.8,8.1,61.8z M8.2,52.3c-1.1,0-2,0.4-2.7,1.2s-1.1,1.8-1.1,2.9
			c0,1.1,0.4,2,1.1,2.8s1.6,1.2,2.7,1.2s1.9-0.4,2.7-1.2c0.7-0.8,1.1-1.8,1.1-2.9c0-1.1-0.4-2-1.1-2.8C10.1,52.7,9.2,52.3,8.2,52.3z
			"/>
		<path class="st0" d="M3.4,48.9v-1.3h8.3v-3.2H13V49L3.4,48.9L3.4,48.9z"/>
		<path class="st0" d="M3.2,43.2v-1.4h5.9c0.9,0,1.6-0.2,2-0.7c0.5-0.4,0.7-1,0.7-1.8s-0.2-1.4-0.7-1.8c-0.4-0.4-1.1-0.7-1.9-0.7h-6
			v-1.4h6.1c1.2,0,2.1,0.3,2.8,1c0.7,0.7,1.1,1.6,1.1,2.8s-0.4,2.1-1.1,2.8c-0.7,0.7-1.8,1.1-3.2,1.1H3.2V43.2z"/>
		<path class="st0" d="M3.4,34.1V28h1.3v2.4H13v1.3H4.7v2.4H3.4z"/>
		<path class="st0" d="M3.4,26.6v-1.3H13v1.3H3.4z"/>
		<path class="st0" d="M8.1,23.5c-1.4,0-2.6-0.5-3.6-1.6S3,19.5,3,18s0.5-2.7,1.5-3.8s2.2-1.6,3.6-1.6c1.5,0,2.7,0.5,3.7,1.6
			s1.5,2.3,1.5,3.9c0,1.5-0.5,2.8-1.5,3.9C10.8,22.9,9.6,23.5,8.1,23.5z M8.2,14c-1.1,0-2,0.4-2.7,1.2S4.4,17,4.4,18.1
			s0.4,2,1.1,2.8C6.3,21.7,7.2,22,8.2,22c1.1,0,1.9-0.4,2.7-1.2C11.6,20,12,19,12,17.9s-0.4-2-1.1-2.8C10.1,14.4,9.2,14,8.2,14z"/>
		<path class="st0" d="M3,10.8l7.3-7.3H3.4V2.2h10.1L6.1,9.5H13v1.4L3,10.8L3,10.8z"/>
	</g>
	<path class="st1" d="M121.7,103.6h23.1c1.8,0,3.5,0.8,5.2,2.3c0.7,0.7,1.2,1.5,1.5,2.6c0.1,0.6,0.2,0.9,0.3,1.2h-37.2
		C115.2,105.6,117.6,103.6,121.7,103.6z"/>
	<path class="st1" d="M39,103.6h23.1c1.8,0,3.5,0.8,5.2,2.3c0.7,0.7,1.2,1.5,1.5,2.6c0.1,0.6,0.2,0.9,0.3,1.2H31.9
		C32.6,105.6,34.9,103.6,39,103.6z"/>
	<path class="st1" d="M62.2,131.8h-21c-4,0-6.6-0.8-7.8-2.2c-1.1-1.2-1.6-2.5-1.6-3.9h26.7c1.5,0,2.3-0.8,2.3-2.5
		c0-1.6-0.7-2.4-2.2-2.4H39c-4.2,0-6.6-2.2-7.1-6.5h11c0.1,0,0.1,0,0.2,0h19.2c5,0,7.6,2.8,7.5,8.5
		C69.8,128.8,67.3,131.8,62.2,131.8z"/>
	<polygon class="st1" points="69.8,103.9 80.1,103.9 83.4,109.6 73.2,109.6 	"/>
	<polygon class="st1" points="97.9,131.5 86.3,131.5 76,114.3 86.1,114.3 91.8,123.9 92.4,123.9 98,114.3 108.2,114.3 	"/>
	<polygon class="st1" points="100.7,109.6 104.1,103.9 114.4,103.9 111,109.6 	"/>
	<path class="st1" d="M144.8,131.8h-21.1c-4,0-6.6-0.8-7.8-2.2c-1.1-1.2-1.6-2.5-1.6-3.9h26.8c1.5,0,2.3-0.8,2.3-2.5
		c0-1.6-0.7-2.4-2.2-2.4h-19.5c-4.2,0-6.6-2.2-7.1-6.5h11c0.1,0,0.1,0,0.2,0H145c5,0,7.5,2.8,7.5,8.5
		C152.4,128.8,149.9,131.8,144.8,131.8z"/>
</g>
</svg>
