<?xml version="1.0" encoding="utf-8"?>
<!-- Generator: Adobe Illustrator 18.1.0, SVG Export Plug-In . SVG Version: 6.00 Build 0)  -->
<svg version="1.1" id="Layer_1" xmlns="http://www.w3.org/2000/svg" xmlns:xlink="http://www.w3.org/1999/xlink" x="0px" y="0px"
	 viewBox="0 0 393.3 393.4" enable-background="new 0 0 393.3 393.4" xml:space="preserve">
<path fill="#fff" d="M121.3,36.5c8.4,8.4,16.9,16.8,25.3,25.3c14.8,14.9,14.8,32.4,0.1,47.2c-10.6,10.6-21.1,21.3-31.9,31.8
	c-2.9,2.8-3.1,5-1.6,8.5c7.1,17,17.3,32.1,28.9,46.3c23.2,28.5,49.4,53.8,80.6,73.4c6.7,4.2,14.1,7.3,21.1,11c3.6,1.9,6,1.3,8.9-1.6
	c10.6-10.9,21.4-21.6,32.2-32.3c14.1-14,31.9-14,46,0c17.3,17.2,34.6,34.4,51.8,51.7c14.4,14.5,14.3,32.3-0.2,46.9
	c-9.8,9.9-20.2,19.3-29.4,29.6c-13.5,15.1-30.4,20-49.7,18.9c-28.1-1.5-54.1-10.9-79.1-23c-55.5-27-103-64.4-142.7-111.7
	c-29.4-35-53.6-73-69.6-116C4.1,121.8-1.4,100.5,0.3,78c1-13.9,6.3-25.7,16.5-35.5c11-10.5,21.5-21.5,32.3-32.1
	C63.3-3.5,81-3.5,95.2,10.5C104,19.1,112.6,27.8,121.3,36.5z"/>
</svg>
